<?xml version="1.0" standalone="no"?>
<!DOCTYPE svg PUBLIC "-//W3C//DTD SVG 1.1//EN" "http://www.w3.org/Graphics/SVG/1.1/DTD/svg11.dtd" >
<svg xmlns="http://www.w3.org/2000/svg" xmlns:xlink="http://www.w3.org/1999/xlink" version="1.1" viewBox="-10 0 710 1000">
   <path fill="currentColor"
d="M250 600h100v100h-100v-100zM150 700h100v100h-100v-100zM250 800h100v100h-100v-100zM350 700h100v100h-100v-100zM450 600h100v100h-100v-100zM550 700h100v100h-100v-100zM450 800h100v100h-100v-100zM250 400h200v100h-200v-100zM50 500h200v100h-200v-100zM150 300
h100v100h-100v-100zM250 200h100v100h-100v-100zM150 100h100v100h-100v-100zM50 200h100v100h-100v-100zM450 300h200v100h-200v-100z" />
</svg>
