<?xml version="1.0" standalone="no"?>
<!DOCTYPE svg PUBLIC "-//W3C//DTD SVG 1.1//EN" "http://www.w3.org/Graphics/SVG/1.1/DTD/svg11.dtd" >
<svg xmlns="http://www.w3.org/2000/svg" xmlns:xlink="http://www.w3.org/1999/xlink" version="1.1" viewBox="-10 0 710 1000">
   <path fill="currentColor"
d="M350 900h-100v-100h100v100zM350 500h-100v-100h100v100zM250 600h-100v-100h100v100zM150 700h-100v-100h100v100zM250 800h-100v-100h100v100zM650 900h-100v-100h100v100zM650 500h-100v-100h100v100zM550 600h-100v-100h100v100zM450 700h-100v-100h100v100zM550 800
h-100v-100h100v100z" />
</svg>
