<?xml version="1.0" standalone="no"?>
<!DOCTYPE svg PUBLIC "-//W3C//DTD SVG 1.1//EN" "http://www.w3.org/Graphics/SVG/1.1/DTD/svg11.dtd" >
<svg xmlns="http://www.w3.org/2000/svg" xmlns:xlink="http://www.w3.org/1999/xlink" version="1.1" viewBox="-10 0 885 1000">
   <path fill="currentColor"
d="M375 875v-125h125v125h-125zM0 875v-125h125v125h-125zM500 750v-125h125v125h-125zM125 750v-125h125v125h-125zM625 625v-125h125v125h-125zM250 625v-125h125v125h-125zM625 500h-125v-125h125v125zM250 500h-125v-125h125v125zM500 375h-125v-125h125v125zM125 375
h-125v-125h125v125z" />
</svg>
